<svg xmlns="http://www.w3.org/2000/svg" viewBox="0 0 1133.26 304.7"><defs><style>.cls-1{fill:#f7fbfc;}.cls-2{fill:#c6c6c6;}</style></defs><g id="Capa_2" data-name="Capa 2"><g id="AlyPay_User" data-name="AlyPay User"><path class="cls-1" d="M167.56,50.13a43.38,43.38,0,0,1,3.26-6c2.5-4.51,4.58-8.34,6.25-11.52q42.44-13.38,79.34-13.39a97.45,97.45,0,0,1,22.4,2.51,35.27,35.27,0,0,1,16.52,8.38q6.26,5.76,9.76,17.27a157.28,157.28,0,0,1,5.63,27.91l2.88,22.52L322,156q5,35.67,10.51,55.31Q292.71,223,276.06,230.84q0-14.15-4-76.84-23.4-1.5-31.78-1.5-9,.38-23.71,1.19t-27.47,1.56q-47.57,52.44-76.71,69.45Q83,241.85,57.19,241.85q-25,0-41-12.52T0,203.43q0-15.27,16.89-34,16.65-18.51,44.18-32.66,27.41-13.89,65.2-13.89,9,0,17.2.5T162,125q10.33,1.13,21,2.63l25.15-36.42Q215.49,80.43,237.64,42q-14.76.38-32.72,2.5T167.56,50.13ZM62.45,160.26q-9.77,13.89-9.77,27.65,0,14.4,9.64,21t22.9,6.63q10.14,0,27.78-2.63.63-1.12,14.64-16,12.77-13.51,38.67-43.3Q104.49,155.75,62.45,160.26Zm142.91-29.54q9.63,1.13,27.15,4.32t38,7.45A781.78,781.78,0,0,0,255,57.77Q241.27,82.67,205.36,130.72Z"/><path class="cls-1" d="M434.29,45.15V177.89h26.24V211.1h-69.4V45.15Z"/><path class="cls-1" d="M599.94,45.15,568.47,151V211.1h-40V151L498.15,45.15h39.64q9.3,48.59,10.48,65.4,3.59-26.56,12-65.4Z"/><path class="cls-2" d="M934.16,46.32l24.68,166h-44.1l-2.32-29.83H897l-2.59,29.83H849.77l22-166ZM911.29,153q-3.27-28.19-6.57-69.7-6.6,47.67-8.29,69.7Z"/><path class="cls-2" d="M1095.12,46.32,1063.65,152.2v60.07h-40V152.2L993.33,46.32H1033q9.29,48.59,10.48,65.39,3.58-26.55,12-65.39Z"/><path class="cls-2" d="M1119,16.69a14.23,14.23,0,1,0,14.23,14.23A14.23,14.23,0,0,0,1119,16.69Zm0,26.09a11.86,11.86,0,1,1,11.86-11.86A11.86,11.86,0,0,1,1119,42.78Z"/><path class="cls-2" d="M1114,38.35V22.71h5.45a7.63,7.63,0,0,1,3,.42,3.29,3.29,0,0,1,1.47,1.46,5,5,0,0,1,.58,2.49,4.7,4.7,0,0,1-.88,3,3.93,3.93,0,0,1-2.5,1.4,6.61,6.61,0,0,1,1.37,1.31A17.59,17.59,0,0,1,1124,35.3l1.55,3.05h-3.09l-1.87-3.41a22.27,22.27,0,0,0-1.37-2.31,2.12,2.12,0,0,0-.77-.64,3.72,3.72,0,0,0-1.3-.17h-.54v6.53Zm2.58-9h1.92a9.85,9.85,0,0,0,2.24-.15,1.45,1.45,0,0,0,.78-.63,2.28,2.28,0,0,0,.3-1.24,2.13,2.13,0,0,0-.3-1.2,1.53,1.53,0,0,0-.81-.63,10,10,0,0,0-2.1-.12h-2Z"/><path class="cls-2" d="M850.71,50.37Q850.71,95,789,127q-41.17,21.57-98,32.73l-18.4,52.48h-55l55-154.73h54.59L701.27,130q29.25-6.63,51.88-20.66,31.51-19.76,32.72-46,.75-16.89-11.31-22.17Q767.32,38,748.47,38H594.35L617.88,0H773.2q34.08,0,52,8.44Q850.72,20.37,850.71,50.37Z"/><path class="cls-2" d="M381.09,280,379,292.22H339.91l8.87-53.07h38.14L385,250.77H362.21l-1.38,8.32H380L378,270.6h-19.1L357.37,280Z"/><path class="cls-2" d="M423.9,279.47l-2.1,12.75H385.52l8.86-53.07h16.13l-6.74,40.32Z"/><path class="cls-2" d="M485.13,260.41,483.19,272h-17l-3.39,20.22H447.38l8.86-53.07h37.4l-2,11.93H469.7l-1.57,9.33Z"/><path class="cls-2" d="M541.51,239.15l-5.45,32.66c-.93,5.54-2.16,9.65-3.69,12.3a16.36,16.36,0,0,1-7.54,6.46A29.31,29.31,0,0,1,512.31,293q-9.42,0-14.66-4t-5.25-11.45a34.29,34.29,0,0,1,.55-5.75l5.48-32.66h16.16l-5.43,32.66a25.72,25.72,0,0,0-.46,4,4.46,4.46,0,0,0,2,3.85,7.84,7.84,0,0,0,4.71,1.4,7.24,7.24,0,0,0,5.24-1.73c1.19-1.15,2.08-3.47,2.65-6.94l5.55-33.2Z"/><path class="cls-2" d="M571.11,251.2l-6.88,41H548.82l6.88-41H544.34L546.41,239h38.43l-2,12.21Z"/><path class="cls-2" d="M632.72,239.15l-5.44,32.66c-.94,5.54-2.17,9.65-3.7,12.3a16.36,16.36,0,0,1-7.54,6.46A29.28,29.28,0,0,1,603.52,293q-9.4,0-14.66-4t-5.25-11.45a34.29,34.29,0,0,1,.55-5.75l5.48-32.66H605.8l-5.43,32.66a25.72,25.72,0,0,0-.46,4,4.46,4.46,0,0,0,2,3.85,7.87,7.87,0,0,0,4.72,1.4,7.28,7.28,0,0,0,5.24-1.73c1.19-1.15,2.07-3.47,2.64-6.94l5.56-33.2Z"/><path class="cls-2" d="M671.84,270l5.75,22.24H661.88L657.21,272h-6.28l-3.38,20.18H632.41l8.86-53.07h23.18q9.43,0,14,4.14T683,254.54Q683,265.94,671.84,270Zm-19.05-9h6q8.6,0,8.6-5.83,0-4.9-7.22-4.9h-5.55Z"/><path class="cls-2" d="M709.39,293.58a23.74,23.74,0,0,1-16.33-6.16q-6.91-6.17-6.92-17.67,0-13.33,7.74-22.65a25,25,0,0,1,20.21-9.31q10,0,16.41,6.51t6.42,17.05q0,13.45-7.62,22.84A24.42,24.42,0,0,1,709.39,293.58Zm.12-12.36a6.92,6.92,0,0,0,6.26-3.48,30.75,30.75,0,0,0,3.38-10.21,61.47,61.47,0,0,0,1.24-9.1q0-4.08-1.88-6.18a6.41,6.41,0,0,0-5-2.1q-5.94,0-8.36,8.28a53.54,53.54,0,0,0-2.41,14.66Q702.74,281.22,709.51,281.22Z"/><path class="cls-1" d="M756.55,304.7l9.88-35.34h9l-.82,35.34Zm7.26-39,2.33-14.07h15.1l-2.37,14.07Z"/><path class="cls-1" d="M812.47,281.37H798.26l-5,10.85H780.15l24.57-53.07h16.65l8.24,53.07H814Zm-1-11-2.11-15.36-7,15.36Z"/><path class="cls-1" d="M867,270.87H853.21l-3.56,21.35H834.24l8.86-53.07h15.41l-3.26,19.52H869l3.26-19.52H887.7l-8.87,53.07H863.42Z"/><path class="cls-1" d="M913.12,293.58a23.76,23.76,0,0,1-16.33-6.16q-6.91-6.17-6.92-17.67,0-13.33,7.74-22.65a25,25,0,0,1,20.22-9.31q10,0,16.4,6.51t6.42,17.05q0,13.45-7.62,22.84A24.42,24.42,0,0,1,913.12,293.58Zm.12-12.36a6.91,6.91,0,0,0,6.26-3.48,30.75,30.75,0,0,0,3.38-10.21,62,62,0,0,0,1.25-9.1q0-4.08-1.89-6.18a6.39,6.39,0,0,0-5-2.1q-5.94,0-8.36,8.28a53.54,53.54,0,0,0-2.41,14.66Q906.47,281.22,913.24,281.22Z"/><path class="cls-1" d="M982.18,270l5.75,22.24h-15.7L967.55,272h-6.27l-3.39,20.18H942.75l8.86-53.07h23.18q9.44,0,14,4.14t4.55,11.25Q993.33,265.94,982.18,270Zm-19-9h6q8.6,0,8.6-5.83,0-4.9-7.22-4.9h-5.55Z"/><path class="cls-1" d="M1024,281.37h-14.2l-5,10.85H991.7l24.56-53.07h16.65l8.25,53.07H1025.5Zm-.94-11L1021,255.05l-7,15.36Z"/><path class="cls-1" d="M1063.64,278.14l-2.34,14.08h-15.09l2.33-14.08Zm7.26-39L1061,274.49h-9l.82-35.34Z"/></g></g></svg>