<svg xmlns="http://www.w3.org/2000/svg" viewBox="0 0 738.8 180.33"><defs><style>.cls-1{fill:#fff;}</style></defs><g id="Capa_2" data-name="Capa 2"><g id="Powered_By_AlySystem" data-name="Powered By AlySystem"><path class="cls-1" d="M100.22,83.81q-8.93,1.06-18.59,2.81l1.91-3c1.23-2.21,2.25-4.08,3.06-5.63q20.75-6.56,38.81-6.55a47.48,47.48,0,0,1,11,1.22,17.28,17.28,0,0,1,8.08,4.1,18.55,18.55,0,0,1,4.77,8.45A77,77,0,0,1,152,98.87l1.41,11,4.1,28.46a217,217,0,0,0,5.14,27h0q-19.47,5.7-27.61,9.55,0-6.91-1.95-37.57h0q-11.45-.74-15.54-.73-4.41.18-11.6.58L92.48,138q-23.26,25.65-37.52,34t-27,8.39q-12.24,0-20.08-6.12T0,161.54q0-7.47,8.26-16.65t21.61-16q13.39-6.79,31.88-6.8c2.94,0,5.75.09,8.42.25s5.69.43,9.06.79,6.78.8,10.25,1.29l12.3-17.81q3.61-5.26,14.44-24h0Q109,82.77,100.22,83.81ZM30.54,140.42q-4.77,6.79-4.77,13.53,0,7,4.71,10.28a19.27,19.27,0,0,0,11.2,3.24,97.49,97.49,0,0,0,13.59-1.28q.3-.56,7.16-7.83,6.24-6.62,18.91-21.18h0Q51.1,138.22,30.54,140.42ZM100.44,126h0q4.71.55,13.28,2.11t18.6,3.64h0a381.32,381.32,0,0,0-7.59-41.43Q118,102.48,100.44,126Z"/><path class="cls-1" d="M203.08,83.39v65.08H216v16.29h-34V83.39Z"/><path class="cls-1" d="M281.78,83.39l-15.43,51.92v29.45h-19.6V135.31L231.88,83.39h19.43q4.56,23.83,5.14,32.07,1.76-13,5.89-32.07Z"/><path class="cls-1" d="M440.11,83.77l-15.43,51.91v29.45h-19.6V135.68L390.21,83.77h19.43q4.56,23.82,5.14,32.06,1.75-13,5.89-32.06Z"/><path class="cls-1" d="M503.14,108.39H483.49v-6q0-4.22-.76-5.37a2.77,2.77,0,0,0-2.51-1.16,3.2,3.2,0,0,0-2.89,1.56,9.07,9.07,0,0,0-1,4.73,13.44,13.44,0,0,0,1.1,6.13c.7,1.38,2.7,3,6,5q14.13,8.38,17.8,13.76t3.67,17.34c0,5.79-.68,10.07-2,12.81s-4,5.05-7.86,6.91a31.12,31.12,0,0,1-13.57,2.79,30.36,30.36,0,0,1-14.5-3.21q-6-3.23-7.87-8.2t-1.86-14.12V136h19.65v9.9q0,4.56.83,5.88a3.22,3.22,0,0,0,2.94,1.3,3.43,3.43,0,0,0,3.14-1.66,9.39,9.39,0,0,0,1-4.92q0-7.19-2-9.4t-9.9-7.39a96,96,0,0,1-10.45-7.59,17.79,17.79,0,0,1-4.25-6.53,28.79,28.79,0,0,1-1.68-10.65q0-9.34,2.39-13.67a16,16,0,0,1,7.71-6.76,30.69,30.69,0,0,1,12.87-2.44,33.59,33.59,0,0,1,14,2.66q5.81,2.67,7.69,6.71t1.89,13.75Z"/><path class="cls-1" d="M567.77,83.77v16.28H555.21v65.08H534.05V100.05H521.54V83.77Z"/><path class="cls-1" d="M589.23,83.77h35.28v16.28H610.39v15.43h13.22V131H610.39v17.89h15.53v16.28H589.23Z"/><path class="cls-1" d="M711.26,83.77v81.36h-18.5l0-54.93-7.36,54.93H672.26l-7.76-53.67,0,53.67H646V83.77h27.37q1.23,7.33,2.51,17.3l3,20.69,4.86-38Z"/><path class="cls-1" d="M726.42,57.45A12.38,12.38,0,1,0,738.8,69.83,12.38,12.38,0,0,0,726.42,57.45Zm0,22.7a10.32,10.32,0,1,1,10.32-10.32A10.32,10.32,0,0,1,726.42,80.15Z"/><path class="cls-1" d="M722.08,76.29V62.68h4.74a6.66,6.66,0,0,1,2.6.37,2.9,2.9,0,0,1,1.28,1.27,4.38,4.38,0,0,1,.51,2.17,4.05,4.05,0,0,1-.77,2.57,3.43,3.43,0,0,1-2.18,1.23,5.66,5.66,0,0,1,1.2,1.13,16.56,16.56,0,0,1,1.29,2.22l1.36,2.65h-2.69l-1.63-3a20.07,20.07,0,0,0-1.2-2,1.81,1.81,0,0,0-.67-.56,3.08,3.08,0,0,0-1.13-.15h-.46v5.68Zm2.25-7.85H726a8.25,8.25,0,0,0,2-.14,1.22,1.22,0,0,0,.67-.54,1.92,1.92,0,0,0,.26-1.08,1.84,1.84,0,0,0-.26-1.05,1.3,1.3,0,0,0-.7-.54,8.84,8.84,0,0,0-1.83-.1h-1.76Z"/><path class="cls-1" d="M357.37,65.84h9.79q10.35,7.41,10.34,21.79a26.81,26.81,0,0,1-1.65,9.24q-9.06-9.3-15.05-11.14a37.61,37.61,0,0,0-10.47-1.84,13.53,13.53,0,0,0-3.79.31c-.45.25-.76,1.12-.92,2.63a25.3,25.3,0,0,0-.37,4.1,25.52,25.52,0,0,0,1.16,6.74c.74,2.81,2.1,4.61,4.1,5.38a58.7,58.7,0,0,0,6.86,2.45,74.85,74.85,0,0,0,12.36,2.2,37.84,37.84,0,0,1,7.47,1.35,9.23,9.23,0,0,1,3.49,2.75,63.24,63.24,0,0,1,5.26,8.27c-6.16,23.25-19.29,37.31-50.46,49.39l-12.43,3.25c-6.4,0-12.6-2.19-19.29-6.72a147.06,147.06,0,0,1-19.52-16.34c-.81-.79-4.79-5.28-5.05-5.72-4.6-7.9-.05-12.24-.05-12.24q22,7.11,49.51,23.08,6.73,4,7.78,4,6.8,0,16.28-6t9.36-14.51a6.34,6.34,0,0,0-2.51-5.57q-2.44-1.59-9.91-2.81-11.82-1.85-17.51-8.51t-5.69-13.89q0-8.76,8.69-23.69T357.37,65.84Z"/><path class="cls-1" d="M259.15,20.57V32.32H249.09V0h13.8a20.24,20.24,0,0,1,7.85,1.18A9.54,9.54,0,0,1,275,4.81a9.83,9.83,0,0,1,1.57,5.47,9.45,9.45,0,0,1-3.22,7.45,12.47,12.47,0,0,1-8.59,2.84ZM259,13.64h3.31c2.92,0,4.38-1.08,4.38-3.22s-1.35-3-4.05-3H259Z"/><path class="cls-1" d="M291.06,32.81a12.48,12.48,0,0,1-9.51-3.72A12.31,12.31,0,0,1,278,20.34a12,12,0,0,1,3.68-9,14.58,14.58,0,0,1,19.13-.05,12,12,0,0,1,3.61,8.91,12.12,12.12,0,0,1-3.66,9A13.23,13.23,0,0,1,291.06,32.81Zm.14-5.73a2.53,2.53,0,0,0,2.69-2.28,22.43,22.43,0,0,0,.49-4.77,12.52,12.52,0,0,0-.69-4.88,2.7,2.7,0,0,0-4.85,0,12.22,12.22,0,0,0-.76,5.07q0,4.14.78,5.48A2.54,2.54,0,0,0,291.2,27.08Z"/><path class="cls-1" d="M340.62,8.24,333,32.32h-6.8l-3.15-13-3.29,13.05H313L305.27,8.24h9.28L317.73,20l3-11.79h7l3,11.78,3.33-11.78Z"/><path class="cls-1" d="M358.66,23.68l8.8.59a10.39,10.39,0,0,1-4,6.05c-2.13,1.66-5,2.49-8.67,2.49q-6.09,0-9.71-3.51a11.69,11.69,0,0,1-3.62-8.73,13.41,13.41,0,0,1,22.45-9.32q3.57,3.5,3.57,9.54c0,.33,0,.79,0,1.37H351.34a6.15,6.15,0,0,0,.81,3.37A3.24,3.24,0,0,0,355,26.64,3.3,3.3,0,0,0,358.66,23.68ZM358,17.43c0-1.63-.34-2.72-1-3.28a3.47,3.47,0,0,0-2.37-.84c-2.24,0-3.35,1.37-3.35,4.12Z"/><path class="cls-1" d="M380.22,32.32h-9V8.24H379v5q1.35-5.42,6.28-5.42c.33,0,.78,0,1.37.09v8.41a7.68,7.68,0,0,0-1.78-.24c-3.12,0-4.69,1.75-4.69,5.23Z"/><path class="cls-1" d="M405.58,23.68l8.81.59a10.39,10.39,0,0,1-4,6.05q-3.21,2.49-8.68,2.49-6.08,0-9.7-3.51a11.67,11.67,0,0,1-3.63-8.73,13.42,13.42,0,0,1,22.46-9.32q3.56,3.5,3.56,9.54c0,.33,0,.79,0,1.37H398.27a6.25,6.25,0,0,0,.8,3.37,3.9,3.9,0,0,0,6.51-1.85Zm-.64-6.25c0-1.63-.34-2.72-1-3.28a3.44,3.44,0,0,0-2.37-.84q-3.34,0-3.35,4.12Z"/><path class="cls-1" d="M441.62,32.32h-8.86v-3.2a6.78,6.78,0,0,1-6.49,3.69,8.24,8.24,0,0,1-6.76-3.25q-2.58-3.25-2.59-9.46,0-5.81,2.61-9.21a8.24,8.24,0,0,1,6.89-3.41,7.42,7.42,0,0,1,5.89,2.72V0h9.31Zm-9.31-15.49q0-3.24-2.67-3.24a2.42,2.42,0,0,0-2.45,2.06,18.67,18.67,0,0,0-.58,5q0,5.85,3,5.85a2.47,2.47,0,0,0,1.93-.92,4.26,4.26,0,0,0,.79-2.82Z"/><path class="cls-1" d="M464.08,32.32h-5.32V0h9.3V11.1a6.6,6.6,0,0,1,6.18-3.36,8.22,8.22,0,0,1,5.07,1.56,9.23,9.23,0,0,1,3.1,4.47,18.19,18.19,0,0,1,1,6.09q0,5.84-2.61,9.39c-1.73,2.38-4.32,3.56-7.76,3.56A8.85,8.85,0,0,1,465.31,29,14.94,14.94,0,0,0,464.08,32.32Zm4-9q0,3.56,2.75,3.56a2.53,2.53,0,0,0,2.28-1.29c.53-.86.8-2.64.8-5.32,0-2.92-.31-4.75-.9-5.5a2.77,2.77,0,0,0-2.23-1.13,2.6,2.6,0,0,0-1.87.81,3.11,3.11,0,0,0-.83,2.34Z"/><path class="cls-1" d="M509.09,8.24l-9.45,26.09A10.44,10.44,0,0,1,496.52,39q-2,1.66-6.27,1.67c-.68,0-2.26-.07-4.74-.22v-6.7a22.53,22.53,0,0,0,3.41.29c2.71,0,4.07-.6,4.07-1.8a4.78,4.78,0,0,0-.4-1.63L484,8.24h10.1l4,12.85,4.16-12.85Z"/></g></g></svg>